<svg xmlns="http://www.w3.org/2000/svg" viewBox="0 0 960 476" font-family="Georgia, 'Times New Roman', serif">
  <defs>
    <marker id="arr" viewBox="0 0 10 10" refX="8.5" refY="5" markerWidth="6.5" markerHeight="6.5" orient="auto-start-reverse">
      <path d="M0 0 L10 5 L0 10 z" fill="#7d8b82"/>
    </marker>
    <path id="icoReact" d="M14.23 12.004a2.236 2.236 0 0 1-2.235 2.236 2.236 2.236 0 0 1-2.236-2.236 2.236 2.236 0 0 1 2.235-2.236 2.236 2.236 0 0 1 2.236 2.236zm2.648-10.69c-1.346 0-3.107.96-4.888 2.622-1.78-1.653-3.542-2.602-4.887-2.602-.41 0-.783.093-1.106.278-1.375.793-1.683 3.264-.973 6.365C1.98 8.917 0 10.42 0 12.004c0 1.59 1.99 3.097 5.043 4.03-.704 3.113-.39 5.588.988 6.38.32.187.69.275 1.102.275 1.345 0 3.107-.96 4.888-2.624 1.78 1.654 3.542 2.603 4.887 2.603.41 0 .783-.09 1.106-.275 1.374-.792 1.683-3.263.973-6.365C22.02 15.096 24 13.59 24 12.004c0-1.59-1.99-3.097-5.043-4.032.704-3.11.39-5.587-.988-6.38-.318-.184-.688-.277-1.092-.278zm-.005 1.09v.006c.225 0 .406.044.558.127.666.382.955 1.835.73 3.704-.054.46-.142.945-.25 1.44-.96-.236-2.006-.417-3.107-.534-.66-.905-1.345-1.727-2.035-2.447 1.592-1.48 3.087-2.292 4.105-2.295zm-9.77.02c1.012 0 2.514.808 4.11 2.28-.686.72-1.37 1.537-2.02 2.442-1.107.117-2.154.298-3.113.538-.112-.49-.195-.964-.254-1.42-.23-1.868.054-3.32.714-3.707.19-.09.4-.127.563-.132zm4.882 3.05c.455.468.91.992 1.36 1.564-.44-.02-.89-.034-1.345-.034-.46 0-.915.01-1.36.034.44-.572.895-1.096 1.345-1.565zM12 8.1c.74 0 1.477.034 2.202.093.406.582.802 1.203 1.183 1.86.372.64.71 1.29 1.018 1.946-.308.655-.646 1.31-1.013 1.95-.38.66-.773 1.288-1.18 1.87-.728.063-1.466.098-2.21.098-.74 0-1.477-.035-2.202-.093-.406-.582-.802-1.204-1.183-1.86-.372-.64-.71-1.29-1.018-1.946.303-.657.646-1.313 1.013-1.954.38-.66.773-1.286 1.18-1.868.728-.064 1.466-.098 2.21-.098zm-3.635.254c-.24.377-.48.763-.704 1.16-.225.39-.435.782-.635 1.174-.265-.656-.49-1.31-.676-1.947.64-.15 1.315-.283 2.015-.386zm7.26 0c.695.103 1.365.23 2.006.387-.18.632-.405 1.282-.66 1.933-.2-.39-.41-.783-.64-1.174-.225-.392-.465-.774-.705-1.146zm3.063.675c.484.15.944.317 1.375.498 1.732.74 2.852 1.708 2.852 2.476-.005.768-1.125 1.74-2.857 2.475-.42.18-.88.342-1.355.493-.28-.958-.646-1.956-1.1-2.98.45-1.017.81-2.01 1.085-2.964zm-13.395.004c.278.96.645 1.957 1.1 2.98-.45 1.017-.812 2.01-1.086 2.964-.484-.15-.944-.318-1.37-.5-1.732-.737-2.852-1.706-2.852-2.474 0-.768 1.12-1.742 2.852-2.476.42-.18.88-.342 1.356-.494zm11.678 4.28c.265.657.49 1.312.676 1.948-.64.157-1.316.29-2.016.39.24-.375.48-.762.705-1.158.225-.39.435-.788.636-1.18zm-9.945.02c.2.392.41.783.64 1.175.23.39.465.772.705 1.143-.695-.102-1.365-.23-2.006-.386.18-.63.406-1.282.66-1.933zM17.92 16.32c.112.493.2.968.254 1.423.23 1.868-.054 3.32-.714 3.708-.147.09-.338.128-.563.128-1.012 0-2.514-.807-4.11-2.28.686-.72 1.37-1.536 2.02-2.44 1.107-.118 2.154-.3 3.113-.54zm-11.83.01c.96.234 2.006.415 3.107.532.66.905 1.345 1.727 2.035 2.446-1.595 1.483-3.092 2.295-4.11 2.295-.22-.005-.406-.05-.553-.132-.666-.38-.955-1.834-.73-3.703.054-.46.142-.944.25-1.438zm4.56.64c.44.02.89.034 1.345.034.46 0 .915-.01 1.36-.034-.44.572-.895 1.095-1.345 1.565-.455-.47-.91-.993-1.36-1.565z"/>
    <path id="icoDotnet" d="M24 8.77h-2.468v7.565h-1.425V8.77h-2.462V7.53H24zm-6.852 7.565h-4.821V7.53h4.63v1.24h-3.205v2.494h2.953v1.234h-2.953v2.604h3.396zm-6.708 0H8.882L4.78 9.863a2.896 2.896 0 0 1-.258-.51h-.036c.032.189.048.592.048 1.21v5.772H3.157V7.53h1.659l3.965 6.32c.167.261.275.442.323.54h.024c-.04-.233-.06-.629-.06-1.185V7.529h1.372zm-8.703-.693a.868.829 0 0 1-.869.829.868.829 0 0 1-.868-.83.868.829 0 0 1 .868-.828.868.829 0 0 1 .869.829Z"/>
    <path id="icoPython" d="M14.25.18l.9.2.73.26.59.3.45.32.34.34.25.34.16.33.1.3.04.26.02.2-.01.13V8.5l-.05.63-.13.55-.21.46-.26.38-.3.31-.33.25-.35.19-.35.14-.33.1-.3.07-.26.04-.21.02H8.77l-.69.05-.59.14-.5.22-.41.27-.33.32-.27.35-.2.36-.15.37-.1.35-.07.32-.04.27-.02.21v3.06H3.17l-.21-.03-.28-.07-.32-.12-.35-.18-.36-.26-.36-.36-.35-.46-.32-.59-.28-.73-.21-.88-.14-1.05-.05-1.23.06-1.22.16-1.04.24-.87.32-.71.36-.57.4-.44.42-.33.42-.24.4-.16.36-.1.32-.05.24-.01h.16l.06.01h8.16v-.83H6.18l-.01-2.75-.02-.37.05-.34.11-.31.17-.28.25-.26.31-.23.38-.2.44-.18.51-.15.58-.12.64-.1.71-.06.77-.04.84-.02 1.27.05zm-6.3 1.98l-.23.33-.08.41.08.41.23.34.33.22.41.09.41-.09.33-.22.23-.34.08-.41-.08-.41-.23-.33-.33-.22-.41-.09-.41.09zm13.09 3.95l.28.06.32.12.35.18.36.27.36.35.35.47.32.59.28.73.21.88.14 1.04.05 1.23-.06 1.23-.16 1.04-.24.86-.32.71-.36.57-.4.45-.42.33-.42.24-.4.16-.36.09-.32.05-.24.02-.16-.01h-8.22v.82h5.84l.01 2.76.02.36-.05.34-.11.31-.17.29-.25.25-.31.24-.38.2-.44.17-.51.15-.58.13-.64.09-.71.07-.77.04-.84.01-1.27-.04-1.07-.14-.9-.2-.73-.25-.59-.3-.45-.33-.34-.34-.25-.34-.16-.33-.1-.3-.04-.25-.02-.2.01-.13v-5.34l.05-.64.13-.54.21-.46.26-.38.3-.32.33-.24.35-.2.35-.14.33-.1.3-.06.26-.04.21-.02.13-.01h5.84l.69-.05.59-.14.5-.21.41-.28.33-.32.27-.35.2-.36.15-.36.1-.35.07-.32.04-.28.02-.21V6.07h2.09l.14.01zm-6.47 14.25l-.23.33-.08.41.08.41.23.33.33.23.41.08.41-.08.33-.23.23-.33.08-.41-.08-.41-.23-.33-.33-.23-.41-.08-.41.08z"/>
    <path id="icoMongo" d="M17.193 9.555c-1.264-5.58-4.252-7.414-4.573-8.115-.28-.394-.53-.954-.735-1.44-.036.495-.055.685-.523 1.184-.723.566-4.438 3.682-4.74 10.02-.282 5.912 4.27 9.435 4.888 9.884l.07.05A73.49 73.49 0 0111.91 24h.481c.114-1.032.284-2.056.51-3.07.417-.296.604-.463.85-.693a11.342 11.342 0 003.639-8.464c.01-.814-.103-1.662-.197-2.218zm-5.336 8.195s0-8.291.275-8.29c.213 0 .49 10.695.49 10.695-.381-.045-.765-1.76-.765-2.405z"/>
    <path id="icoClaude" d="m4.7144 15.9555 4.7174-2.6471.079-.2307-.079-.1275h-.2307l-.7893-.0486-2.6956-.0729-2.3375-.0971-2.2646-.1214-.5707-.1215-.5343-.7042.0546-.3522.4797-.3218.686.0608 1.5179.1032 2.2767.1578 1.6514.0972 2.4468.255h.3886l.0546-.1579-.1336-.0971-.1032-.0972L6.973 9.8356l-2.55-1.6879-1.3356-.9714-.7225-.4918-.3643-.4614-.1578-1.0078.6557-.7225.8803.0607.2246.0607.8925.686 1.9064 1.4754 2.4893 1.8336.3643.3035.1457-.1032.0182-.0728-.164-.2733-1.3539-2.4467-1.445-2.4893-.6435-1.032-.17-.6194c-.0607-.255-.1032-.4674-.1032-.7285L6.287.1335 6.6997 0l.9957.1336.419.3642.6192 1.4147 1.0018 2.2282 1.5543 3.0296.4553.8985.2429.8318.091.255h.1579v-.1457l.1275-1.706.2368-2.0947.2307-2.6957.0789-.7589.3764-.9107.7468-.4918.5828.2793.4797.686-.0668.4433-.2853 1.8517-.5586 2.9021-.3643 1.9429h.2125l.2429-.2429.9835-1.3053 1.6514-2.0643.7286-.8196.85-.9046.5464-.4311h1.0321l.759 1.1293-.34 1.1657-1.0625 1.3478-.8804 1.1414-1.2628 1.7-.7893 1.36.0729.1093.1882-.0183 2.8535-.607 1.5421-.2794 1.8396-.3157.8318.3886.091.3946-.3278.8075-1.967.4857-2.3072.4614-3.4364.8136-.0425.0304.0486.0607 1.5482.1457.6618.0364h1.621l3.0175.2247.7892.522.4736.6376-.079.4857-1.2142.6193-1.6393-.3886-3.825-.9107-1.3113-.3279h-.1822v.1093l1.0929 1.0686 2.0035 1.8092 2.5075 2.3314.1275.5768-.3218.4554-.34-.0486-2.2039-1.6575-.85-.7468-1.9246-1.621h-.1275v.17l.4432.6496 2.3436 3.5214.1214 1.0807-.17.3521-.6071.2125-.6679-.1214-1.3721-1.9246L14.38 17.959l-1.1414-1.9428-.1397.079-.674 7.2552-.3156.3703-.7286.2793-.6071-.4614-.3218-.7468.3218-1.4753.3886-1.9246.3157-1.53.2853-1.9004.17-.6314-.0121-.0425-.1397.0182-1.4328 1.9672-2.1796 2.9446-1.7243 1.8456-.4128.164-.7164-.3704.0667-.6618.4008-.5889 2.386-3.0357 1.4389-1.882.929-1.0868-.0062-.1579h-.0546l-6.3385 4.1164-1.1293.1457-.4857-.4554.0608-.7467.2307-.2429 1.9064-1.3114Z"/>
    <path id="icoGmail" d="M24 5.457v13.909c0 .904-.732 1.636-1.636 1.636h-3.819V11.73L12 16.64l-6.545-4.91v9.273H1.636A1.636 1.636 0 0 1 0 19.366V5.457c0-2.023 2.309-3.178 3.927-1.964L5.455 4.64 12 9.548l6.545-4.91 1.528-1.145C21.69 2.28 24 3.434 24 5.457z"/>
    <path id="icoIndeed" d="M11.566 21.5633v-8.762c.2553.0231.5009.0346.758.0346 1.2225 0 2.3739-.3206 3.3506-.8928v9.6182c0 .8219-.1957 1.4287-.5757 1.8338-.378.4033-.8808.6049-1.491.6049-.6007 0-1.0766-.2016-1.468-.6183-.3781-.4032-.5739-1.01-.5739-1.8184zM11.589.5659c2.5447-.8929 5.4424-.8449 7.6186.987.405.3687.8673.8334 1.0515 1.3806.2207.6913-.7695-.073-.9057-.167-.71-.4532-1.4182-.8334-2.2127-1.0946C12.8614.3873 8.8122 2.709 6.2945 6.315c-1.0516 1.5939-1.7367 3.2721-2.299 5.1174-.0614.2017-.1094.4647-.2207.6413-.1113.2036-.048-.5453-.048-.5702.0845-.7623.2438-1.4997.4414-2.237C5.3292 5.3375 7.897 2.0655 11.5891.5658zm4.9281 7.0587c0 1.6686-1.353 3.0224-3.0205 3.0224-1.6677 0-3.0186-1.3538-3.0186-3.0224 0-1.6687 1.351-3.0224 3.0186-3.0224 1.6676 0 3.0205 1.3518 3.0205 3.0224Z"/>
    <path id="icoSpark" d="M11 0 L13.6 8.4 L22 11 L13.6 13.6 L11 22 L8.4 13.6 L0 11 L8.4 8.4 Z"/>
  </defs>

  <!-- paper -->
  <rect x="0" y="0" width="960" height="476" fill="#101613"/>
  <rect x="0.5" y="0.5" width="959" height="475" fill="none" stroke="#2a332c"/>

  <!-- edges -->
  <g stroke="#7d8b82" fill="none" stroke-width="1.4" marker-end="url(#arr)">
    <path d="M480,108 V164"/>
    <path d="M400,108 C370,138 262,136 226,166"/>
    <path d="M290,207 H351"/>
    <path d="M670,207 H609"/>
    <path d="M480,246 V374"/>
    <path d="M545,246 L638,374"/>
    <path d="M140,246 L126,374"/>
    <path d="M205,246 L293,374"/>
    <path d="M255,246 L436,374"/>
    <path d="M795,246 V374"/>
    <path d="M795,84 V164" stroke-dasharray="4 4"/>
  </g>

  <!-- edge labels -->
  <g font-style="italic" font-size="10.5" fill="#b6c3ba" text-anchor="middle">
    <text x="300" y="128">discovery · search</text>
    <text x="321" y="199">delegates AI</text>
    <text x="638" y="199">updates</text>
  </g>

  <!-- row 1 · interface -->
  <g>
    <rect x="355" y="30" width="250" height="78" fill="#1a211c" stroke="#2a332c"/>
    <use href="#icoReact" transform="translate(373,54) scale(1.25)" fill="#61DAFB"/>
    <text x="417" y="65" font-size="16" font-weight="700" fill="#edf3ee">Client</text>
    <text x="417" y="86" font-size="11" font-style="italic" fill="#b6c3ba">React SPA — the dashboard</text>

    <rect x="745" y="52" width="100" height="32" fill="#1a211c" stroke="#2a332c" stroke-dasharray="4 3"/>
    <text x="795" y="72" font-family="Helvetica, Arial, sans-serif" font-size="9" letter-spacing="1.5" fill="#b6c3ba" text-anchor="middle">CRON · DAILY</text>
  </g>

  <!-- row 2 · services -->
  <g>
    <rect x="40" y="168" width="250" height="78" fill="#1a211c" stroke="#2a332c"/>
    <use href="#icoPython" transform="translate(58,192) scale(1.25)" fill="#5B9BD5"/>
    <text x="102" y="203" font-size="16" font-weight="700" fill="#edf3ee">Scraper</text>
    <text x="102" y="224" font-size="11" font-style="italic" fill="#b6c3ba">ingest · vector search</text>

    <rect x="355" y="168" width="250" height="78" fill="#1a211c" stroke="#41d488" stroke-width="1.5"/>
    <rect x="355" y="168" width="3" height="78" fill="#41d488"/>
    <use href="#icoDotnet" transform="translate(375,192) scale(1.25)" fill="#8F7BFF"/>
    <text x="419" y="203" font-size="16" font-weight="700" fill="#edf3ee">API</text>
    <text x="419" y="224" font-size="11" font-style="italic" fill="#b6c3ba">every Claude call lives here</text>
    <text x="593" y="186" font-family="Helvetica, Arial, sans-serif" font-size="8" letter-spacing="1.5" fill="#41d488" text-anchor="end">AI HUB</text>

    <rect x="670" y="168" width="250" height="78" fill="#1a211c" stroke="#2a332c"/>
    <use href="#icoDotnet" transform="translate(688,192) scale(1.25)" fill="#8F7BFF"/>
    <text x="732" y="203" font-size="16" font-weight="700" fill="#edf3ee">Mailbot</text>
    <text x="732" y="224" font-size="11" font-style="italic" fill="#b6c3ba">one-shot cron · Gmail sync</text>
  </g>

  <!-- row 3 · external providers -->
  <g>
    <rect x="40" y="378" width="170" height="62" fill="#1a211c" stroke="#2a332c" stroke-dasharray="4 3"/>
    <rect x="52" y="394" width="18" height="18" rx="2" fill="#2E7CD6"/>
    <text x="61" y="407" font-family="Helvetica, Arial, sans-serif" font-size="10" font-weight="700" fill="#FFFFFF" text-anchor="middle">in</text>
    <use href="#icoIndeed" transform="translate(76,394) scale(0.75)" fill="#4D82E0"/>
    <text x="102" y="405" font-size="12" font-weight="600" fill="#edf3ee">Job boards</text>
    <text x="102" y="423" font-size="10" font-style="italic" fill="#b6c3ba">LinkedIn · Indeed</text>

    <rect x="235" y="378" width="150" height="62" fill="#1a211c" stroke="#2a332c" stroke-dasharray="4 3"/>
    <use href="#icoSpark" transform="translate(249,399) scale(0.83)" fill="#16BE93"/>
    <text x="279" y="405" font-size="12" font-weight="600" fill="#edf3ee">OpenAI</text>
    <text x="279" y="423" font-size="10" font-style="italic" fill="#b6c3ba">embeddings</text>

    <rect x="410" y="378" width="140" height="62" fill="#1a211c" stroke="#2a332c" stroke-dasharray="4 3"/>
    <use href="#icoMongo" transform="translate(420,398) scale(0.83)" fill="#54B45B"/>
    <text x="446" y="405" font-size="12" font-weight="600" fill="#edf3ee">MongoDB Atlas</text>
    <text x="446" y="423" font-size="10" font-style="italic" fill="#b6c3ba">+ vector search</text>

    <rect x="575" y="378" width="140" height="62" fill="#1a211c" stroke="#2a332c" stroke-dasharray="4 3"/>
    <use href="#icoClaude" transform="translate(589,398) scale(0.83)" fill="#D97757"/>
    <text x="619" y="405" font-size="12" font-weight="600" fill="#edf3ee">Claude</text>
    <text x="619" y="423" font-size="10" font-style="italic" fill="#b6c3ba">Anthropic API</text>

    <rect x="725" y="378" width="140" height="62" fill="#1a211c" stroke="#2a332c" stroke-dasharray="4 3"/>
    <use href="#icoGmail" transform="translate(739,399) scale(0.83)" fill="#EA4335"/>
    <text x="769" y="405" font-size="12" font-weight="600" fill="#edf3ee">Gmail</text>
    <text x="769" y="423" font-size="10" font-style="italic" fill="#b6c3ba">read-only scope</text>
  </g>

  <!-- caption -->
  <text x="40" y="463" font-size="10" font-style="italic" fill="#b6c3ba">Solid cards — NextRole services · dashed — external providers. Every Claude call flows through the API.</text>
</svg>
